<svg width="212" height="190" viewBox="0 0 212 190" fill="none" xmlns="http://www.w3.org/2000/svg">
<g clip-path="url(#clip0)">
<path d="M76.4024 153.672C78.435 166.194 69.9316 177.993 57.4095 180.025C44.8874 182.058 33.0885 173.555 31.0559 161.033C29.0233 148.511 37.5267 136.712 50.0487 134.679C62.5708 132.646 74.3697 141.15 76.4024 153.672Z" fill="#F6D87B" stroke="white" stroke-width="10"/>
<path d="M53.73 0C51.73 0 49.73 0.0599994 47.73 0.139999H0C0 0.139999 16.5 4.49001 25.73 48.14C44.6983 43.2912 64.6021 43.4634 83.4838 48.6396C102.365 53.8158 119.574 63.8177 133.418 77.6616C147.262 91.5056 157.264 108.715 162.44 127.596C167.617 146.478 167.789 166.382 162.94 185.35H208.63C212.701 162.682 211.751 139.396 205.847 117.135C199.943 94.873 189.23 74.1769 174.461 56.5046C159.692 38.8324 141.227 24.614 120.367 14.8512C99.5078 5.08851 76.7611 0.019023 53.73 0V0Z" fill="white"/>
<path d="M53.73 68.3801C44.2155 68.3759 34.762 69.8986 25.73 72.8901V110.76C36.13 104.53 48.3136 101.952 60.3459 103.438C72.3781 104.923 83.5692 110.386 92.1418 118.958C100.715 127.531 106.177 138.722 107.663 150.754C109.148 162.787 106.571 174.97 100.34 185.37H138.2C142.633 171.995 143.827 157.758 141.683 143.831C139.54 129.904 134.12 116.685 125.87 105.261C117.62 93.8382 106.775 84.5371 94.2281 78.1235C81.6814 71.7099 67.791 68.3671 53.7 68.3701L53.73 68.3801Z" fill="white"/>
</g>
<defs>
<clipPath id="clip0">
<rect width="211.111" height="189.442" fill="white"/>
</clipPath>
</defs>
</svg>